<svg version="1.1" id="Calque_1" xmlns="http://www.w3.org/2000/svg" xmlns:xlink="http://www.w3.org/1999/xlink" x="0px" y="0px"
	 viewBox="0 0 360 144" style="enable-background:new 0 0 360 144;" xml:space="preserve">
<style type="text/css">
	.st0{fill:#FFFFFF;}
</style>
<g>
	<path class="st0" d="M38.75,110.43h2.45c0.75,0,0.85-0.22,0.85-1.87V68.97H30.6v39.59c0,1.65,0.1,1.87,0.85,1.87h2.45
		c0.2,0,0.3,0.11,0.3,0.99c0,0.88-0.1,0.99-0.3,0.99H17.5c-0.2,0-0.3-0.11-0.3-0.99c0-0.88,0.1-0.99,0.3-0.99h3.1
		c0.75,0,0.85-0.22,0.85-1.87V35.22c0-1.65-0.1-1.87-0.85-1.87h-3c-0.2,0-0.3-0.11-0.3-0.99c0-0.88,0.1-0.99,0.3-0.99h16.2
		c0.2,0,0.3,0.11,0.3,0.99c0,0.88-0.1,0.99-0.3,0.99h-2.35c-0.75,0-0.85,0.22-0.85,1.87v31.76h11.45V35.22
		c0-1.65-0.1-1.87-0.85-1.87h-2.35c-0.2,0-0.3-0.11-0.3-0.99c0-0.88,0.1-0.99,0.3-0.99h16.2c0.2,0,0.3,0.11,0.3,0.99
		c0,0.88-0.1,0.99-0.3,0.99h-3c-0.75,0-0.85,0.22-0.85,1.87v73.34c0,1.65,0.1,1.87,0.85,1.87h3.1c0.2,0,0.3,0.11,0.3,0.99
		c0,0.88-0.1,0.99-0.3,0.99h-16.4c-0.2,0-0.3-0.11-0.3-0.99C38.45,110.54,38.55,110.43,38.75,110.43z"/>
	<path class="st0" d="M57.15,110.43c3.35-0.44,4.4-4.74,7.2-24.81L72,31.14c0.1-0.55,0.3-0.88,0.55-0.88h4.9
		c0.3,0,0.4,0.22,0.5,0.88l11.45,77.42c0.25,1.65,0.4,1.87,1.15,1.87h2.2c0.2,0,0.3,0.11,0.3,0.99c0,0.88-0.1,0.99-0.3,0.99H75.8
		c-0.15,0-0.25-0.11-0.25-0.99c0-0.88,0.1-0.99,0.3-0.99h3.85c0.75,0,0.85-0.22,0.6-1.87l-3.6-24.7H65.65l-0.35,2.21
		c-2.9,19.63-2.45,23.93,2.5,24.37c0.2,0,0.3,0.33,0.3,0.99c0,0.88-0.1,0.99-0.3,0.99H57.05c-0.2,0-0.3-0.11-0.3-0.99
		C56.75,110.76,56.85,110.43,57.15,110.43z M65.9,81.87h10.5l-2.75-18.64c-0.65-4.3-1.9-13.79-2.4-18.2h-0.2L65.9,81.87z"/>
	<path class="st0" d="M87.6,31.36h16.95c0.15,0,0.25,0.11,0.25,0.99c0,0.88-0.1,0.99-0.3,0.99h-3.85c-0.75,0-0.85,0.22-0.6,1.87
		l6.65,45.33c0.65,4.3,1.95,14.23,2.4,18.2h0.2l5.75-41.03c2.75-19.63,2.45-23.93-2.5-24.37c-0.2,0-0.3-0.33-0.3-0.99
		c0-0.88,0.1-0.99,0.3-0.99h10.75c0.2,0,0.3,0.11,0.3,0.99c0,0.66-0.1,0.99-0.4,0.99c-3.35,0.44-4.4,4.74-7.2,24.81l-7.65,54.48
		c-0.1,0.55-0.3,0.88-0.55,0.88h-4.9c-0.3,0-0.4-0.22-0.5-0.88L90.95,35.22c-0.25-1.65-0.4-1.87-1.15-1.87h-2.2
		c-0.2,0-0.3-0.11-0.3-0.99C87.3,31.47,87.4,31.36,87.6,31.36z"/>
	<path class="st0" d="M125.35,110.43h3.1c0.75,0,0.85-0.22,0.85-1.87V35.22c0-1.65-0.1-1.87-0.85-1.87h-3c-0.2,0-0.3-0.11-0.3-0.99
		c0-0.88,0.1-0.99,0.3-0.99h29.6c0.7,0,0.85,0.55,0.85,2.1v24.7c0,0.55-0.2,0.77-0.4,0.77c-0.25,0-0.45-0.22-0.5-0.77
		c-2.1-18.97-5.55-24.81-12.45-24.81h-3.25c-0.75,0-0.85,0.22-0.85,1.87v32.75h2.1c4,0,6.6-3.09,7.55-14.12
		c0.05-0.55,0.2-0.77,0.45-0.77c0.2,0,0.45,0.22,0.45,0.77v30.33c0,0.55-0.25,0.88-0.45,0.88c-0.25,0-0.4-0.33-0.45-0.88
		c-0.95-11.03-3.55-14.23-7.55-14.23h-2.1v38.6c0,1.65,0.1,1.87,0.85,1.87h2.3c7.5,0,11.45-8.27,13.95-29.11
		c0.05-0.55,0.25-0.77,0.5-0.77c0.2,0,0.4,0.22,0.4,0.77v29c0,1.54-0.15,2.1-0.85,2.1h-30.25c-0.2,0-0.3-0.11-0.3-0.99
		C125.05,110.54,125.15,110.43,125.35,110.43z"/>
	<path class="st0" d="M159.3,110.43c4.3-0.44,4.85-7.17,4.85-21.39V36.99c0-3.31-0.15-3.64-1.65-3.64h-2.65
		c-0.2,0-0.3-0.11-0.3-0.99c0-0.88,0.1-0.99,0.3-0.99h13.2c0.45,0,0.75,0.44,1,1.43l11.25,46.65c0.35,1.54,3,12.46,3.25,14h0.2
		c0-2.32-0.1-12.79-0.1-13.67V54.74c0-14.23-0.55-20.95-5.85-21.39c-0.2,0-0.3-0.33-0.3-0.99c0-0.88,0.1-0.99,0.3-0.99h11.7
		c0.2,0,0.3,0.11,0.3,0.99c0,0.66-0.1,0.99-0.3,0.99c-4.3,0.44-4.85,7.17-4.85,21.39v56.02c0,0.88-0.05,1.65-0.55,1.65h-5.25
		c-0.45,0-0.65-0.55-0.85-1.32l-17.65-73.12h-0.2v51.06c0,14.23,0.55,20.95,6.3,21.39c0.2,0,0.3,0.33,0.3,0.99
		c0,0.88-0.1,0.99-0.3,0.99H159.3c-0.2,0-0.3-0.11-0.3-0.99C159,110.76,159.1,110.43,159.3,110.43z"/>
	<path class="st0" d="M210.75,110.43h3.1c0.75,0,0.85-0.22,0.85-1.87V35.22c0-1.65-0.1-1.87-0.85-1.87h-3c-0.2,0-0.3-0.11-0.3-0.99
		c0-0.88,0.1-0.99,0.3-0.99h17.5c0.2,0,0.3,0.11,0.3,0.99c0,0.88-0.1,0.99-0.3,0.99h-3.65c-0.75,0-0.85,0.22-0.85,1.87v73.34
		c0,1.65,0.1,1.87,0.85,1.87h2.25c6.55,0,11.25-11.03,13.45-32.64c0.05-0.44,0.15-0.66,0.45-0.66c0.4,0,0.45,0.22,0.45,0.66v32.64
		c0,1.54-0.15,1.98-0.85,1.98h-29.7c-0.2,0-0.3-0.11-0.3-0.99C210.45,110.54,210.55,110.43,210.75,110.43z"/>
	<path class="st0" d="M243.9,110.43c3.35-0.44,4.4-4.74,7.2-24.81l7.65-54.48c0.1-0.55,0.3-0.88,0.55-0.88h4.9
		c0.3,0,0.4,0.22,0.5,0.88l11.45,77.42c0.25,1.65,0.4,1.87,1.15,1.87h2.2c0.2,0,0.3,0.11,0.3,0.99c0,0.88-0.1,0.99-0.3,0.99h-16.95
		c-0.15,0-0.25-0.11-0.25-0.99c0-0.88,0.1-0.99,0.3-0.99h3.85c0.75,0,0.85-0.22,0.6-1.87l-3.6-24.7H252.4l-0.35,2.21
		c-2.9,19.63-2.45,23.93,2.5,24.37c0.2,0,0.3,0.33,0.3,0.99c0,0.88-0.1,0.99-0.3,0.99H243.8c-0.2,0-0.3-0.11-0.3-0.99
		C243.5,110.76,243.6,110.43,243.9,110.43z M252.65,81.87h10.5l-2.75-18.64c-0.65-4.3-1.9-13.79-2.4-18.2h-0.2L252.65,81.87z"/>
	<path class="st0" d="M300,68.64v0.44c8.65,1.54,13.15,9.48,13.15,21.28c0,13.79-4.85,22.06-14.65,22.06h-17.1
		c-0.2,0-0.3-0.11-0.3-0.99c0-0.88,0.1-0.99,0.3-0.99h3.1c0.75,0,0.85-0.22,0.85-1.87V35.22c0-1.65-0.1-1.87-0.85-1.87h-3
		c-0.2,0-0.3-0.11-0.3-0.99c0-0.88,0.1-0.99,0.3-0.99h15.95c11.1,0,14.5,7.83,14.5,18.75C311.95,59.59,307.9,67.97,300,68.64z
		 M300.35,36.54c-1.1-2.43-2.15-3.2-3.7-3.2h-1.4c-0.75,0-0.85,0.22-0.85,1.87v32.64h2.25c1.5,0,2.55-1.1,3.45-3.09
		c1.15-2.54,2-7.39,2-14.89C302.1,43.27,301.4,38.86,300.35,36.54z M301.3,73.82c-1.3-2.87-2.75-3.97-4.6-3.97h-2.3v38.71
		c0,1.65,0.1,1.87,0.85,1.87h2.1c1.9,0,3-0.88,4.05-3.2c1.3-2.87,2.1-8.71,2.1-17.31S302.55,76.58,301.3,73.82z"/>
	<path class="st0" d="M336.8,98.85c0-6.29-1.55-13.12-7.6-18.42c-8.1-7.06-10.35-13.23-10.35-26.03c0-14,4.75-24.04,10.95-24.04
		c3,0,4.65,3.42,7.25,3.42c1.15,0,1.9-1.21,2.25-1.98c0.2-0.44,0.3-0.55,0.5-0.55c0.4,0,0.45,0.22,0.45,0.66v23.6
		c0,0.44-0.15,0.66-0.45,0.66s-0.4-0.33-0.45-0.66c-1.65-14.12-5.05-23.16-9.55-23.16c-3.2,0-5.45,3.64-5.45,10.37
		c0,7.39,2.3,12.02,8.2,16.87c7.15,5.85,10.25,14.12,10.25,28.34c0,14.12-5.75,25.81-12.75,25.81c-4.1,0-6.7-3.86-9.4-3.86
		c-1.15,0-2.05,0.77-2.6,1.98c-0.2,0.44-0.3,0.55-0.5,0.55c-0.4,0-0.45-0.22-0.45-0.66V81.54c0-0.44,0.15-0.77,0.45-0.77
		c0.3,0,0.4,0.33,0.45,0.66c1.45,15.77,6.2,30.33,12.1,30.33C334.6,111.76,336.8,106.79,336.8,98.85z"/>
</g>
</svg>
