<svg width="719" height="202" viewBox="0 0 719 202" fill="none" xmlns="http://www.w3.org/2000/svg">
<g clip-path="url(#clip0_2002_1200)">
<path d="M52.3021 194.549H58.2482C60.0685 194.549 60.3112 194.015 60.3112 189.986V93.9253H32.5219V190.011C32.5219 194.015 32.7646 194.573 34.5849 194.573H40.5311C41.0165 194.573 41.2592 194.84 41.2592 196.976C41.2592 199.112 41.0165 199.379 40.5311 199.379H0.728101C0.242699 199.379 0 199.112 0 196.976C0 194.84 0.242699 194.573 0.728101 194.573H8.25184C10.0721 194.573 10.3148 194.039 10.3148 190.011V12.0137C10.3148 8.00914 10.0721 7.45092 8.25184 7.45092H0.970808C0.485406 7.45092 0.242707 7.18396 0.242707 5.04819C0.242707 2.91242 0.485406 2.64545 0.970808 2.64545H40.2884C40.7738 2.64545 41.0165 2.91242 41.0165 5.04819C41.0165 7.18396 40.7738 7.45092 40.2884 7.45092H34.5849C32.7646 7.45092 32.5219 7.98487 32.5219 12.0137V89.0955H60.3112V12.0137C60.3112 8.00914 60.0685 7.45092 58.2482 7.45092H52.5448C52.0594 7.45092 51.8167 7.18396 51.8167 5.04819C51.8167 2.91242 52.0594 2.64545 52.5448 2.64545H91.8623C92.3477 2.64545 92.5904 2.91242 92.5904 5.04819C92.5904 7.18396 92.3477 7.45092 91.8623 7.45092H84.5813C82.761 7.45092 82.5183 7.98487 82.5183 12.0137V189.986C82.5183 193.991 82.761 194.549 84.5813 194.549H92.105C92.5904 194.549 92.8331 194.816 92.8331 196.952C92.8331 199.088 92.5904 199.355 92.105 199.355H52.3021C51.8167 199.355 51.574 199.088 51.574 196.952C51.574 194.792 51.8167 194.549 52.3021 194.549Z" fill="#F6F6F6"/>
<path d="M96.959 194.549C105.09 193.481 107.638 183.045 114.434 134.335L133 2.13577C133.243 0.800916 133.728 0 134.335 0H146.227C146.955 0 147.198 0.533945 147.441 2.13577L175.23 190.011C175.837 194.015 176.201 194.573 178.021 194.573H183.361C183.846 194.573 184.089 194.84 184.089 196.976C184.089 199.112 183.846 199.379 183.361 199.379H142.223C141.859 199.379 141.616 199.112 141.616 196.976C141.616 194.84 141.859 194.573 142.344 194.573H151.688C153.508 194.573 153.751 194.039 153.144 190.011L144.407 130.063H117.589L116.739 135.427C109.701 183.069 110.793 193.505 122.807 194.573C123.292 194.573 123.535 195.374 123.535 196.976C123.535 199.112 123.292 199.379 122.807 199.379H96.7163C96.2309 199.379 95.9882 199.112 95.9882 196.976C95.9882 195.35 96.2309 194.549 96.959 194.549ZM118.195 125.234H143.679L137.005 79.9942C135.427 69.5581 132.393 46.55 131.18 35.8469H130.694L118.195 125.234Z" fill="#F6F6F6"/>
<path d="M170.861 2.64545H211.999C212.363 2.64545 212.606 2.91242 212.606 5.04819C212.606 7.18396 212.363 7.45092 211.878 7.45092H202.534C200.714 7.45092 200.471 7.98487 201.078 12.0137L217.217 122.006C218.795 132.442 221.95 156.518 223.042 166.153H223.528L237.483 66.5971C244.157 18.9549 243.429 8.51881 231.415 7.45092C230.93 7.45092 230.687 6.65002 230.687 5.04819C230.687 2.91242 230.93 2.64545 231.415 2.64545H257.506C257.991 2.64545 258.234 2.91242 258.234 5.04819C258.234 6.65002 257.991 7.45092 257.263 7.45092C249.133 8.51881 246.584 18.955 239.789 67.665L221.222 199.864C220.979 201.199 220.494 202 219.887 202H207.995C207.267 202 207.024 201.466 206.781 199.864L178.992 11.9894C178.385 7.98486 178.021 7.42666 176.201 7.42666H170.861C170.376 7.42666 170.133 7.15968 170.133 5.02391C170.133 2.91242 170.376 2.64545 170.861 2.64545Z" fill="#F6F6F6"/>
<path d="M262.481 194.549H270.005C271.825 194.549 272.068 194.015 272.068 189.986V12.0137C272.068 8.00914 271.825 7.45092 270.005 7.45092H262.724C262.238 7.45092 261.996 7.18396 261.996 5.04819C261.996 2.91242 262.238 2.64545 262.724 2.64545H334.563C336.262 2.64545 336.626 3.9803 336.626 7.74216V67.6893C336.626 69.0242 336.141 69.5581 335.655 69.5581C335.049 69.5581 334.563 69.0242 334.442 67.6893C329.345 21.6489 320.972 7.4752 304.226 7.4752H296.338C294.518 7.4752 294.275 8.00914 294.275 12.038V91.5225H299.372C309.08 91.5225 315.39 84.0231 317.696 57.2774C317.817 55.9426 318.181 55.4086 318.788 55.4086C319.273 55.4086 319.88 55.9426 319.88 57.2774V130.864C319.88 132.199 319.273 133 318.788 133C318.181 133 317.817 132.199 317.696 130.864C315.39 104.094 309.08 96.3523 299.372 96.3523H294.275V190.011C294.275 194.015 294.518 194.573 296.338 194.573H301.92C320.123 194.573 329.709 174.502 335.777 123.923C335.898 122.588 336.384 122.054 336.99 122.054C337.476 122.054 337.961 122.588 337.961 123.923V194.306C337.961 198.044 337.597 199.403 335.898 199.403H262.481C261.996 199.403 261.753 199.136 261.753 197C261.753 194.792 261.996 194.549 262.481 194.549Z" fill="#F6F6F6"/>
<path d="M344.878 194.549C355.314 193.481 356.649 177.147 356.649 142.635V16.3095C356.649 8.27613 356.285 7.47522 352.644 7.47522H346.213C345.727 7.47522 345.485 7.20825 345.485 5.07248C345.485 2.93671 345.727 2.66974 346.213 2.66974H378.249C379.341 2.66974 380.07 3.73762 380.676 6.14036L407.98 119.36C408.83 123.098 415.261 149.601 415.868 153.339H416.353C416.353 147.708 416.111 122.297 416.111 120.161V59.389C416.111 24.8526 414.776 8.54311 401.913 7.47522C401.427 7.47522 401.185 6.6743 401.185 5.07248C401.185 2.93671 401.427 2.66974 401.913 2.66974H430.309C430.794 2.66974 431.037 2.93671 431.037 5.07248C431.037 6.6743 430.794 7.47522 430.309 7.47522C419.873 8.54311 418.538 24.8769 418.538 59.389V195.35C418.538 197.486 418.416 199.355 417.203 199.355H404.461C403.369 199.355 402.883 198.02 402.398 196.151L359.561 18.7123H359.076V142.611C359.076 177.123 360.411 193.457 374.366 194.525C374.852 194.525 375.094 195.326 375.094 196.928C375.094 199.063 374.852 199.33 374.366 199.33H344.878C344.393 199.33 344.15 199.063 344.15 196.928C344.15 195.35 344.393 194.549 344.878 194.549Z" fill="#F6F6F6"/>
<path d="M469.748 194.549H477.271C479.092 194.549 479.334 194.015 479.334 189.986V12.0137C479.334 8.00914 479.092 7.45092 477.271 7.45092H469.99C469.505 7.45092 469.262 7.18396 469.262 5.04819C469.262 2.91242 469.505 2.64545 469.99 2.64545H512.463C512.948 2.64545 513.191 2.91242 513.191 5.04819C513.191 7.18396 512.948 7.45092 512.463 7.45092H503.604C501.784 7.45092 501.542 7.98487 501.542 12.0137V189.986C501.542 193.991 501.784 194.549 503.604 194.549H509.065C524.962 194.549 536.369 167.779 541.709 115.331C541.83 114.264 542.073 113.73 542.801 113.73C543.772 113.73 543.893 114.264 543.893 115.331V194.549C543.893 198.287 543.529 199.355 541.83 199.355H469.748C469.262 199.355 469.02 199.088 469.02 196.952C469.02 194.792 469.262 194.549 469.748 194.549Z" fill="#F6F6F6"/>
<path d="M550.203 194.549C558.333 193.481 560.882 183.045 567.677 134.335L586.244 2.13577C586.487 0.800916 586.972 0 587.579 0H599.471C600.199 0 600.442 0.533945 600.685 2.13577L628.474 190.011C629.081 194.015 629.445 194.573 631.265 194.573H636.605C637.09 194.573 637.333 194.84 637.333 196.976C637.333 199.112 637.09 199.379 636.605 199.379H595.467C595.103 199.379 594.86 199.112 594.86 196.976C594.86 194.84 595.103 194.573 595.588 194.573H604.932C606.752 194.573 606.995 194.039 606.388 190.011L597.651 130.063H570.833L569.983 135.427C562.945 183.069 564.037 193.505 576.051 194.573C576.536 194.573 576.779 195.374 576.779 196.976C576.779 199.112 576.536 199.379 576.051 199.379H549.96C549.475 199.379 549.232 199.112 549.232 196.976C549.232 195.35 549.475 194.549 550.203 194.549ZM571.439 125.234H596.923L590.249 79.9942C588.671 69.5581 585.637 46.55 584.424 35.8469H583.938L571.439 125.234Z" fill="#F6F6F6"/>
<path d="M686.358 93.1244V94.1922C707.352 97.9298 718.274 117.2 718.274 145.839C718.274 179.283 706.503 199.355 682.718 199.355H641.216C640.731 199.355 640.488 199.088 640.488 196.952C640.488 194.816 640.731 194.549 641.216 194.549H648.74C650.56 194.549 650.803 194.015 650.803 189.986V12.0137C650.803 8.00914 650.56 7.45092 648.74 7.45092H641.459C640.973 7.45092 640.731 7.18396 640.731 5.04819C640.731 2.91242 640.973 2.64545 641.459 2.64545H680.17C707.109 2.64545 715.361 21.6489 715.361 48.1519C715.361 71.1599 705.532 91.4983 686.358 93.1244ZM687.208 15.2416C684.538 9.36826 681.99 7.4752 678.228 7.4752H674.83C673.01 7.4752 672.767 8.00913 672.767 12.038V91.2556H678.228C681.868 91.2556 684.417 88.5858 686.601 83.7561C689.392 77.6158 691.455 65.8205 691.455 47.6179C691.455 31.5511 689.756 20.848 687.208 15.2416ZM689.513 105.696C686.358 98.7307 682.839 96.061 678.349 96.061H672.767V190.011C672.767 194.015 673.01 194.573 674.83 194.573H679.927C684.538 194.573 687.208 192.438 689.756 186.807C692.911 179.841 694.853 165.668 694.853 144.795C694.853 123.923 692.547 112.371 689.513 105.696Z" fill="#F6F6F6"/>
</g>
<defs>
<clipPath id="clip0_2002_1200">
<rect width="719" height="202" fill="white"/>
</clipPath>
</defs>
</svg>
